<?xml version="1.0" encoding="UTF-8" standalone="no"?>
<svg
   version="1.0"
   width="1286.2413pt"
   height="307.72879pt"
   viewBox="0 0 1286.2413 307.72879"
   preserveAspectRatio="xMidYMid"
   id="svg8"
   sodipodi:docname="moduqa-white.svg"
   inkscape:version="1.3.1 (9b9bdc1480, 2023-11-25, custom)"
   xmlns:inkscape="http://www.inkscape.org/namespaces/inkscape"
   xmlns:sodipodi="http://sodipodi.sourceforge.net/DTD/sodipodi-0.dtd"
   xmlns="http://www.w3.org/2000/svg"
   xmlns:svg="http://www.w3.org/2000/svg">
  <sodipodi:namedview
     id="namedview1"
     pagecolor="#ffffff"
     bordercolor="#000000"
     borderopacity="0.25"
     inkscape:showpageshadow="2"
     inkscape:pageopacity="0.0"
     inkscape:pagecheckerboard="0"
     inkscape:deskcolor="#d1d1d1"
     inkscape:document-units="pt"
     showgrid="false"
     inkscape:zoom="0.37522119"
     inkscape:cx="462.39393"
     inkscape:cy="311.81608"
     inkscape:window-width="1854"
     inkscape:window-height="1011"
     inkscape:window-x="66"
     inkscape:window-y="32"
     inkscape:window-maximized="1"
     inkscape:current-layer="g8" />
  <defs
     id="defs8" />
  <g
     transform="matrix(0.1,0,0,-0.1,-131.12786,666.80415)"
     fill="#000000"
     stroke="none"
     id="g8">
    <path
       d="m 2990.4204,6457.2803 c -59.3526,-30.5756 -146.583,-72.8419 -193.3457,-94.4247 -46.7627,-21.5828 -232.9142,-112.4103 -413.6699,-200.54 -180.7558,-88.1297 -352.5188,-172.6622 -382.1951,-187.0507 -29.6763,-14.3886 -68.3455,-32.3742 -85.4318,-38.6692 -17.0864,-7.1942 -47.662,-26.9785 -67.4462,-44.9641 l -35.9713,-31.4749 -2.6979,-659.1741 c -1.7985,-446.0441 0,-670.8647 7.1943,-692.4475 8.9928,-32.3741 15.2878,-35.9713 290.4682,-173.5615 153.7773,-77.3383 294.9647,-148.3816 312.0511,-157.3744 115.1081,-62.9498 149.2808,-68.3455 184.3529,-32.3742 26.0792,25.1799 29.6763,68.3455 7.1942,89.9283 -15.2878,16.187 -283.274,148.3816 -299.461,148.3816 -6.295,0 -8.9929,215.8278 -8.9929,607.0156 0,505.3968 1.7986,607.0157 12.59,607.0157 6.295,0 35.9713,11.6907 64.7483,26.0792 28.7771,14.3885 112.4103,54.8562 185.2522,89.9283 l 131.2953,62.9497 174.4608,-87.2304 c 243.7055,-122.3024 255.3962,-125.8995 294.0653,-106.1153 55.7555,29.6763 54.8563,21.5828 54.8563,393.8857 0,266.1876 2.6978,339.9288 11.6906,339.0295 5.3957,0 31.4749,-11.6907 55.7555,-25.1799 37.7699,-21.5828 470.3248,-241.907 694.2461,-354.3173 73.7412,-36.8706 104.3168,-38.6691 133.9931,-5.3957 18.8849,20.6835 21.5828,71.9426 4.4964,91.7268 -6.295,8.0936 -225.7199,121.4032 -488.3104,252.6984 -350.7201,176.2594 -483.8139,239.2091 -504.4974,237.4106 -16.1871,0 -77.3383,-26.0792 -136.691,-55.7555 z m 90.8276,-704.1382 c -1.7986,-1.7986 -39.5685,14.3885 -82.734,36.8706 -44.0649,21.5827 -136.691,67.4462 -205.9357,100.7196 -240.1084,115.1082 -310.2525,151.0795 -310.2525,158.2737 0,3.5972 4.4964,7.1943 9.8921,7.1943 9.8921,0 399.2815,187.0507 520.6846,250.0005 l 67.4462,35.072 2.6978,-292.2668 c 0.8993,-160.9715 0,-294.0653 -1.7985,-295.8639 z m -662.7712,158.2737 c 50.3598,-25.1799 92.6261,-48.5613 95.3239,-53.0577 3.5971,-6.2949 -125.0002,-73.7411 -192.4464,-99.8203 -48.5613,-18.885 -122.3025,-60.2519 -138.4895,-78.2376 -13.4893,-14.3885 -15.2878,-71.0433 -15.2878,-607.9149 -0.8993,-553.9581 -1.7986,-590.8286 -16.1871,-585.4329 -8.0936,3.5971 -26.9785,9.8921 -42.2663,15.2878 -14.3885,4.4964 -57.5541,23.3813 -94.4247,41.367 l -67.4461,33.2734 -2.6979,603.4185 -1.7986,603.4186 114.2089,56.6548 c 63.8491,30.5756 141.1874,69.2447 173.5615,86.3311 32.3742,16.1871 67.4462,30.5756 77.3383,30.5756 10.7914,0 60.252,-20.6835 110.6118,-45.8634 z"
       id="path1"
       style="fill:#002060;fill-opacity:1;stroke-width:0.899282" />
    <path
       d="m 4383.409,5817.8904 -21.5828,-21.5828 v -672.6632 l 0.8993,-672.6633 -65.6476,-34.1728 c -35.9713,-17.9856 -106.1154,-52.1584 -155.5759,-75.5397 -49.4605,-22.4821 -156.4752,-73.7412 -238.3099,-113.3096 -81.8347,-38.6691 -206.8349,-99.8204 -278.7775,-133.9931 -71.9426,-35.072 -187.9501,-90.8275 -258.0941,-125.0002 -70.144,-34.1728 -131.2952,-62.0505 -136.6909,-62.0505 -6.295,0 -9.8921,33.2734 -9.8921,94.4246 v 94.4247 l 79.1368,36.8706 c 43.1656,20.6835 157.3745,75.5397 253.5977,121.4031 201.4393,98.0218 267.0869,128.5974 323.7417,153.7773 32.3741,15.2878 142.0866,66.5469 232.9141,109.7125 7.1943,3.5971 19.7842,19.7842 29.6764,36.8705 15.2878,29.6764 16.187,62.9498 16.187,544.9652 0,282.3747 -2.6978,526.0803 -5.3957,541.3681 -7.1942,37.7698 -56.6548,86.3311 -105.216,105.216 l -40.4677,15.2878 -61.1512,-28.777 c -34.1728,-15.2878 -81.8347,-37.7699 -107.0146,-49.4605 -24.2807,-10.7914 -75.5398,-35.0721 -112.4104,-53.0577 -36.8705,-17.0864 -101.6189,-47.662 -143.8851,-67.4462 -42.2663,-19.7842 -112.4104,-52.1584 -157.3745,-72.8419 -44.0648,-20.6835 -92.6261,-43.1655 -107.9139,-49.4605 -14.3885,-7.1943 -58.4533,-26.9785 -97.1225,-44.0649 -37.7699,-17.9856 -71.9426,-32.3741 -75.5397,-32.3741 -2.6979,0 -100.7197,46.7627 -216.7271,104.3167 -116.9067,57.5541 -224.8206,106.1154 -240.1084,108.8132 -60.2519,9.8921 -100.7197,-64.7483 -61.1512,-113.3096 21.5828,-25.1799 481.1161,-252.6983 511.6917,-252.6983 12.59,0 37.7699,6.2949 55.7555,15.2878 92.6261,41.3669 487.4111,223.9213 595.325,275.1804 181.6551,85.4318 216.7271,98.9211 225.7199,89.9282 5.3957,-5.3957 7.1943,-75.5397 6.295,-178.9572 l -2.6978,-169.9644 -112.4104,-55.7555 c -62.0504,-29.6763 -140.288,-68.3454 -175.36,-83.6332 -34.1728,-16.1871 -117.806,-55.7556 -184.3529,-88.1297 -66.547,-31.4749 -145.6838,-69.2448 -175.3601,-82.734 -29.6764,-13.4893 -93.5254,-44.0649 -141.1874,-67.4462 l -86.3311,-42.2663 -48.5613,22.4821 c -264.389,125.0002 -280.5761,129.4967 -327.3388,99.8203 -48.5612,-32.3741 -48.5612,-32.3741 -48.5612,-469.4254 0,-394.785 0,-404.6771 18.8849,-428.0585 21.5828,-26.9784 64.7483,-31.4749 96.2232,-8.9928 l 19.7842,13.4892 v 362.4109 c 0,290.4682 2.6979,365.1087 11.6907,373.2022 7.1943,5.3957 15.2878,6.295 20.6835,1.7986 4.4964,-4.4964 52.1584,-30.5756 105.2161,-58.4534 133.0938,-68.3455 138.4895,-68.3455 328.2381,17.9857 81.8347,37.7698 157.3744,71.9426 168.1658,76.439 9.8921,4.4964 24.2806,11.6906 31.4749,15.2878 13.4892,8.0935 72.8419,35.9713 197.8421,94.4246 36.8706,17.0864 117.806,55.7555 179.8565,85.4319 78.2376,37.7698 114.2089,51.2591 118.7053,44.0648 3.5971,-6.295 7.1943,-102.5182 7.1943,-214.0292 0,-161.8709 -2.6979,-205.9357 -12.59,-214.0293 -12.5899,-10.7913 -153.7773,-81.8347 -161.8708,-81.8347 -4.4964,0 -107.9139,-48.5612 -333.6338,-157.3744 -53.957,-26.0792 -126.7989,-61.1512 -161.8709,-77.3383 -34.1727,-16.1871 -64.7483,-32.3742 -67.4462,-35.072 -8.9928,-9.8921 -52.1584,-25.1799 -57.554,-20.6835 -2.6979,3.5971 -5.3957,41.367 -5.3957,85.4318 0,72.8419 -1.7986,81.8347 -22.4821,101.619 -26.0792,26.9784 -57.5541,28.777 -86.3311,5.3957 l -21.5828,-17.0864 v -325.5403 -325.5402 l 26.0792,-22.4821 c 24.2806,-20.6835 32.3742,-22.4821 77.3383,-17.9856 34.1727,2.6978 70.144,14.3885 108.8132,35.072 31.4749,17.0863 74.6404,35.9713 96.2232,43.1655 20.6835,6.295 42.2663,17.0864 47.662,24.2807 5.3957,6.2949 14.3885,11.6906 19.7842,11.6906 5.3957,0 44.9641,17.0864 87.2304,37.7699 150.1802,72.8419 497.3032,240.1084 665.469,319.2453 210.4321,99.8203 252.6984,122.3024 269.7848,143.8852 17.9856,22.482 17.9856,38.6691 17.9856,732.0159 0,697.8432 0,709.5339 -17.9856,727.5195 -26.0792,26.0792 -75.5398,24.2807 -104.3168,-4.4964 z"
       id="path2"
       style="fill:#002060;fill-opacity:1;stroke-width:0.899282" />
    <path
       d="m 5207.762,5685.0939 c -29.2946,-15.6237 -62.4952,-50.7772 -72.2601,-78.1189 -11.7178,-27.3417 -19.5297,-277.3226 -19.5297,-556.598 v -507.7735 l 48.8244,-46.8714 c 25.3887,-27.3417 60.5422,-48.8243 78.119,-48.8243 39.0595,0 111.3195,37.1064 130.8493,66.4011 7.812,11.7178 15.6238,164.05 15.6238,339.8176 0,173.8149 5.8589,316.3821 15.6239,316.3821 7.8119,-1.953 64.4481,-74.2131 124.9904,-162.097 226.545,-326.1469 269.5105,-351.5356 382.7831,-234.357 39.0596,41.0125 121.0845,148.426 179.6736,236.3099 58.5894,87.8838 113.2727,160.1441 123.0375,160.1441 7.8119,0 13.6709,-140.6144 13.6709,-310.5232 0,-267.5576 3.9059,-316.3819 35.1535,-349.5825 48.8244,-58.5892 156.238,-64.4482 207.0154,-11.7179 27.3417,25.3887 31.2476,105.4607 31.2476,574.1747 0,597.6105 -1.953,607.3753 -123.0374,636.6699 -48.8244,11.7179 -66.4012,0 -148.4261,-85.9309 -50.7775,-54.6833 -162.097,-203.1093 -248.0279,-333.9588 -83.978,-128.8963 -158.191,-234.3569 -164.05,-234.3569 -5.8589,0 -105.4606,134.7553 -222.639,300.7582 -117.1786,166.0028 -222.6393,310.523 -234.3571,320.2879 -42.9655,35.1535 -101.5547,39.0595 -154.2851,9.7648 z"
       id="path3"
       style="fill:#002060;fill-opacity:1;stroke-width:1.95297" />
    <path
       d="m 7293.5395,5698.7648 c -187.4856,-50.7773 -351.5354,-179.6737 -435.5134,-343.7236 -66.4012,-132.8024 -82.025,-351.5356 -33.2006,-499.9617 41.0125,-121.0844 187.4856,-281.2284 318.3349,-347.6296 333.9588,-169.9088 749.9425,-3.906 872.9798,347.6296 15.6239,48.8244 29.2948,152.3321 29.2948,236.31 0,128.8963 -7.812,167.9559 -60.5423,269.5106 -64.4482,132.8022 -177.7206,242.1688 -304.6641,300.7582 -93.7428,41.0125 -296.8523,60.5422 -386.6891,37.1065 z m 290.9933,-302.7111 c 126.9434,-52.7304 222.6393,-244.122 189.4386,-382.7832 -21.4827,-95.6957 -50.7773,-144.5201 -119.1315,-201.1564 -177.7207,-150.3791 -445.2784,-97.6489 -544.88,107.4136 -119.1316,246.0749 41.0124,499.9617 316.3819,503.8676 50.7774,0 123.0375,-11.7179 158.191,-27.3416 z"
       id="path4"
       style="fill:#002060;fill-opacity:1;stroke-width:1.95297" />
    <path
       d="m 9808.9714,5687.0469 -64.4481,-27.3416 -3.906,-269.5107 c -7.8118,-447.2312 -3.9059,-523.3973 31.2477,-613.2341 64.4481,-162.0969 220.6865,-287.0873 414.03,-330.0527 175.769,-41.0125 414.031,44.9184 533.163,189.4386 91.79,111.3195 109.367,208.9682 109.367,624.9519 0,328.0999 -3.907,378.8772 -33.201,408.1719 -37.107,37.1064 -166.003,41.0124 -199.204,7.8118 -13.67,-13.6708 -25.388,-171.8618 -31.247,-406.2187 -11.718,-419.8897 -17.577,-443.3254 -130.849,-513.6326 -121.085,-76.166 -290.994,-41.0125 -374.972,78.1191 -37.106,52.7304 -41.012,83.9779 -41.012,419.8896 0,361.3004 0,365.2064 -48.8247,412.0777 -54.6832,56.6363 -72.2599,58.5893 -160.1439,19.5298 z"
       id="path5"
       style="fill:#002060;fill-opacity:1;stroke-width:1.95297" />
    <path
       d="m 11551.025,5690.9529 c -128.896,-42.9654 -193.344,-83.9779 -281.228,-179.6737 -124.99,-136.7082 -166.003,-242.1689 -166.003,-429.6545 1.953,-302.7113 142.567,-505.8206 445.278,-644.4819 117.179,-52.7302 166.002,-91.7898 277.322,-212.8743 119.132,-132.8022 140.615,-148.4261 205.063,-148.4261 82.025,0 173.815,76.1661 173.815,144.5202 0,48.8244 -62.495,156.238 -132.802,230.4511 l -48.825,54.6832 56.636,42.9655 c 189.439,146.4731 249.981,273.4165 249.981,523.3973 1.954,216.7802 -39.059,326.1469 -173.815,456.9962 -154.285,150.3791 -421.843,222.6392 -605.422,162.097 z m 330.053,-304.6642 c 31.247,-17.5767 83.978,-64.4482 117.178,-105.4607 54.684,-68.3541 60.542,-89.8367 60.542,-208.9683 0,-115.2254 -5.858,-140.6141 -46.871,-183.5795 l -48.824,-50.7775 -50.778,48.8243 c -64.448,60.5423 -105.46,62.4953 -166.003,0 -35.153,-35.1534 -48.824,-68.3541 -48.824,-126.9433 v -78.119 l -72.26,29.2946 c -93.743,39.0595 -179.674,119.1316 -212.874,199.2036 -35.153,80.0719 -35.153,242.1688 0,324.1938 76.166,177.7207 296.852,249.9809 468.714,152.332 z"
       id="path6"
       style="fill:#ff6e43;fill-opacity:1;stroke-width:1.95297" />
    <path
       d="m 8357.911,5659.7053 c -11.7179,-23.4358 -19.5297,-246.0749 -19.5297,-585.8926 0,-482.3849 3.9058,-550.739 33.2004,-578.0806 27.3418,-27.3417 74.2132,-31.2477 345.6767,-25.3887 269.5105,5.8589 328.0998,11.7179 404.2659,46.8714 205.0624,95.6957 328.0997,273.4165 345.6766,498.0087 17.5767,242.1689 -68.3542,433.5605 -249.9809,566.3627 -132.8022,95.6958 -224.5921,115.2256 -548.786,115.2256 -265.6046,0 -290.9932,-3.9059 -310.523,-37.1065 z m 658.1527,-269.5107 c 154.2849,-72.26 226.545,-308.5699 144.52,-468.714 -68.3541,-134.7552 -138.6612,-169.9088 -347.6296,-177.7206 l -181.6266,-7.812 v 343.7237 343.7236 h 158.191 c 107.4136,0 179.6737,-9.7649 226.5452,-33.2007 z"
       id="path7"
       style="fill:#002060;fill-opacity:1;stroke-width:1.95297" />
    <path
       d="m 12982.555,5677.282 c -17.576,-11.7178 -58.589,-83.9778 -89.835,-160.1439 -33.202,-78.119 -91.791,-212.8743 -130.85,-298.8052 -142.568,-310.5231 -263.652,-605.4224 -263.652,-646.4348 0,-56.6362 62.495,-107.4137 132.802,-109.3667 78.119,-1.9529 89.838,7.812 148.427,130.8495 l 50.777,107.4136 h 251.934 251.933 l 44.918,-91.7899 c 25.39,-50.7773 70.308,-109.3666 99.602,-128.8963 46.872,-35.1536 58.59,-35.1536 113.273,-13.6708 115.226,46.8714 113.272,97.6487 -13.67,371.0652 -27.343,58.5893 -101.555,226.5452 -166.003,371.0654 -148.427,333.9587 -208.969,455.0431 -236.311,472.6199 -33.201,21.4828 -154.285,17.5768 -193.345,-3.906 z m 183.581,-554.6448 c 37.106,-91.79 64.448,-169.9089 58.589,-175.7679 -5.859,-7.8118 -70.308,-11.7178 -144.52,-11.7178 -107.414,0 -132.803,5.8589 -132.803,31.2476 0,41.0125 117.179,320.2879 134.756,320.2879 7.811,0 44.918,-74.2131 83.978,-164.0498 z"
       id="path8"
       style="fill:#002060;fill-opacity:1;stroke-width:1.95297" />
  </g>
</svg>
