<?xml version="1.0" encoding="UTF-8" standalone="no"?>
<svg
   version="1.0"
   width="307.729pt"
   height="307.729pt"
   viewBox="0 0 307.729 307.729"
   preserveAspectRatio="xMidYMid"
   id="svg8"
   sodipodi:docname="moduqa-simple.svg"
   inkscape:version="1.3.1 (9b9bdc1480, 2023-11-25, custom)"
   xmlns:inkscape="http://www.inkscape.org/namespaces/inkscape"
   xmlns:sodipodi="http://sodipodi.sourceforge.net/DTD/sodipodi-0.dtd"
   xmlns="http://www.w3.org/2000/svg"
   xmlns:svg="http://www.w3.org/2000/svg">
  <sodipodi:namedview
     id="namedview1"
     pagecolor="#ffffff"
     bordercolor="#000000"
     borderopacity="0.25"
     inkscape:showpageshadow="2"
     inkscape:pageopacity="0.0"
     inkscape:pagecheckerboard="0"
     inkscape:deskcolor="#d1d1d1"
     inkscape:document-units="pt"
     showgrid="false"
     inkscape:zoom="0.37522119"
     inkscape:cx="462.39393"
     inkscape:cy="311.81608"
     inkscape:window-width="1870"
     inkscape:window-height="1011"
     inkscape:window-x="50"
     inkscape:window-y="32"
     inkscape:window-maximized="1"
     inkscape:current-layer="g8" />
  <defs
     id="defs8" />
  <g
     transform="matrix(0.1,0,0,-0.1,-131.12786,666.80415)"
     fill="#000000"
     stroke="none"
     id="g8">
    <path
       d="m 2690.4204,6457.2803 c -59.3526,-30.5756 -146.583,-72.8419 -193.3457,-94.4247 -46.7627,-21.5828 -232.9142,-112.4103 -413.6699,-200.54 -180.7558,-88.1297 -352.5188,-172.6622 -382.1951,-187.0507 -29.6763,-14.3886 -68.3455,-32.3742 -85.4318,-38.6692 -17.0864,-7.1942 -47.662,-26.9785 -67.4462,-44.9641 l -35.9713,-31.4749 -2.6979,-659.1741 c -1.7985,-446.0441 0,-670.8647 7.1943,-692.4475 8.9928,-32.3741 15.2878,-35.9713 290.4682,-173.5615 153.7773,-77.3383 294.9647,-148.3816 312.0511,-157.3744 115.1081,-62.9498 149.2808,-68.3455 184.3529,-32.3742 26.0792,25.1799 29.6763,68.3455 7.1942,89.9283 -15.2878,16.187 -283.274,148.3816 -299.461,148.3816 -6.295,0 -8.9929,215.8278 -8.9929,607.0156 0,505.3968 1.7986,607.0157 12.59,607.0157 6.295,0 35.9713,11.6907 64.7483,26.0792 28.7771,14.3885 112.4103,54.8562 185.2522,89.9283 l 131.2953,62.9497 174.4608,-87.2304 c 243.7055,-122.3024 255.3962,-125.8995 294.0653,-106.1153 55.7555,29.6763 54.8563,21.5828 54.8563,393.8857 0,266.1876 2.6978,339.9288 11.6906,339.0295 5.3957,0 31.4749,-11.6907 55.7555,-25.1799 37.7699,-21.5828 470.3248,-241.907 694.2461,-354.3173 73.7412,-36.8706 104.3168,-38.6691 133.9931,-5.3957 18.8849,20.6835 21.5828,71.9426 4.4964,91.7268 -6.295,8.0936 -225.7199,121.4032 -488.3104,252.6984 -350.7201,176.2594 -483.8139,239.2091 -504.4974,237.4106 -16.1871,0 -77.3383,-26.0792 -136.691,-55.7555 z m 90.8276,-704.1382 c -1.7986,-1.7986 -39.5685,14.3885 -82.734,36.8706 -44.0649,21.5827 -136.691,67.4462 -205.9357,100.7196 -240.1084,115.1082 -310.2525,151.0795 -310.2525,158.2737 0,3.5972 4.4964,7.1943 9.8921,7.1943 9.8921,0 399.2815,187.0507 520.6846,250.0005 l 67.4462,35.072 2.6978,-292.2668 c 0.8993,-160.9715 0,-294.0653 -1.7985,-295.8639 z m -662.7712,158.2737 c 50.3598,-25.1799 92.6261,-48.5613 95.3239,-53.0577 3.5971,-6.2949 -125.0002,-73.7411 -192.4464,-99.8203 -48.5613,-18.885 -122.3025,-60.2519 -138.4895,-78.2376 -13.4893,-14.3885 -15.2878,-71.0433 -15.2878,-607.9149 -0.8993,-553.9581 -1.7986,-590.8286 -16.1871,-585.4329 -8.0936,3.5971 -26.9785,9.8921 -42.2663,15.2878 -14.3885,4.4964 -57.5541,23.3813 -94.4247,41.367 l -67.4461,33.2734 -2.6979,603.4185 -1.7986,603.4186 114.2089,56.6548 c 63.8491,30.5756 141.1874,69.2447 173.5615,86.3311 32.3742,16.1871 67.4462,30.5756 77.3383,30.5756 10.7914,0 60.252,-20.6835 110.6118,-45.8634 z"
       id="path1"
       style="fill:#002060;fill-opacity:1;stroke-width:0.899282" />
    <path
       d="m 4083.409,5817.8904 -21.5828,-21.5828 v -672.6632 l 0.8993,-672.6633 -65.6476,-34.1728 c -35.9713,-17.9856 -106.1154,-52.1584 -155.5759,-75.5397 -49.4605,-22.4821 -156.4752,-73.7412 -238.3099,-113.3096 -81.8347,-38.6691 -206.8349,-99.8204 -278.7775,-133.9931 -71.9426,-35.072 -187.9501,-90.8275 -258.0941,-125.0002 -70.144,-34.1728 -131.2952,-62.0505 -136.6909,-62.0505 -6.295,0 -9.8921,33.2734 -9.8921,94.4246 v 94.4247 l 79.1368,36.8706 c 43.1656,20.6835 157.3745,75.5397 253.5977,121.4031 201.4393,98.0218 267.0869,128.5974 323.7417,153.7773 32.3741,15.2878 142.0866,66.5469 232.9141,109.7125 7.1943,3.5971 19.7842,19.7842 29.6764,36.8705 15.2878,29.6764 16.187,62.9498 16.187,544.9652 0,282.3747 -2.6978,526.0803 -5.3957,541.3681 -7.1942,37.7698 -56.6548,86.3311 -105.216,105.216 l -40.4677,15.2878 -61.1512,-28.777 c -34.1728,-15.2878 -81.8347,-37.7699 -107.0146,-49.4605 -24.2807,-10.7914 -75.5398,-35.0721 -112.4104,-53.0577 -36.8705,-17.0864 -101.6189,-47.662 -143.8851,-67.4462 -42.2663,-19.7842 -112.4104,-52.1584 -157.3745,-72.8419 -44.0648,-20.6835 -92.6261,-43.1655 -107.9139,-49.4605 -14.3885,-7.1943 -58.4533,-26.9785 -97.1225,-44.0649 -37.7699,-17.9856 -71.9426,-32.3741 -75.5397,-32.3741 -2.6979,0 -100.7197,46.7627 -216.7271,104.3167 -116.9067,57.5541 -224.8206,106.1154 -240.1084,108.8132 -60.2519,9.8921 -100.7197,-64.7483 -61.1512,-113.3096 21.5828,-25.1799 481.1161,-252.6983 511.6917,-252.6983 12.59,0 37.7699,6.2949 55.7555,15.2878 92.6261,41.3669 487.4111,223.9213 595.325,275.1804 181.6551,85.4318 216.7271,98.9211 225.7199,89.9282 5.3957,-5.3957 7.1943,-75.5397 6.295,-178.9572 l -2.6978,-169.9644 -112.4104,-55.7555 c -62.0504,-29.6763 -140.288,-68.3454 -175.36,-83.6332 -34.1728,-16.1871 -117.806,-55.7556 -184.3529,-88.1297 -66.547,-31.4749 -145.6838,-69.2448 -175.3601,-82.734 -29.6764,-13.4893 -93.5254,-44.0649 -141.1874,-67.4462 l -86.3311,-42.2663 -48.5613,22.4821 c -264.389,125.0002 -280.5761,129.4967 -327.3388,99.8203 -48.5612,-32.3741 -48.5612,-32.3741 -48.5612,-469.4254 0,-394.785 0,-404.6771 18.8849,-428.0585 21.5828,-26.9784 64.7483,-31.4749 96.2232,-8.9928 l 19.7842,13.4892 v 362.4109 c 0,290.4682 2.6979,365.1087 11.6907,373.2022 7.1943,5.3957 15.2878,6.295 20.6835,1.7986 4.4964,-4.4964 52.1584,-30.5756 105.2161,-58.4534 133.0938,-68.3455 138.4895,-68.3455 328.2381,17.9857 81.8347,37.7698 157.3744,71.9426 168.1658,76.439 9.8921,4.4964 24.2806,11.6906 31.4749,15.2878 13.4892,8.0935 72.8419,35.9713 197.8421,94.4246 36.8706,17.0864 117.806,55.7555 179.8565,85.4319 78.2376,37.7698 114.2089,51.2591 118.7053,44.0648 3.5971,-6.295 7.1943,-102.5182 7.1943,-214.0292 0,-161.8709 -2.6979,-205.9357 -12.59,-214.0293 -12.5899,-10.7913 -153.7773,-81.8347 -161.8708,-81.8347 -4.4964,0 -107.9139,-48.5612 -333.6338,-157.3744 -53.957,-26.0792 -126.7989,-61.1512 -161.8709,-77.3383 -34.1727,-16.1871 -64.7483,-32.3742 -67.4462,-35.072 -8.9928,-9.8921 -52.1584,-25.1799 -57.554,-20.6835 -2.6979,3.5971 -5.3957,41.367 -5.3957,85.4318 0,72.8419 -1.7986,81.8347 -22.4821,101.619 -26.0792,26.9784 -57.5541,28.777 -86.3311,5.3957 l -21.5828,-17.0864 v -325.5403 -325.5402 l 26.0792,-22.4821 c 24.2806,-20.6835 32.3742,-22.4821 77.3383,-17.9856 34.1727,2.6978 70.144,14.3885 108.8132,35.072 31.4749,17.0863 74.6404,35.9713 96.2232,43.1655 20.6835,6.295 42.2663,17.0864 47.662,24.2807 5.3957,6.2949 14.3885,11.6906 19.7842,11.6906 5.3957,0 44.9641,17.0864 87.2304,37.7699 150.1802,72.8419 497.3032,240.1084 665.469,319.2453 210.4321,99.8203 252.6984,122.3024 269.7848,143.8852 17.9856,22.482 17.9856,38.6691 17.9856,732.0159 0,697.8432 0,709.5339 -17.9856,727.5195 -26.0792,26.0792 -75.5398,24.2807 -104.3168,-4.4964 z"
       id="path2"
       style="fill:#002060;fill-opacity:1;stroke-width:0.899282" />
  </g>
</svg>
