<svg width="257" height="72" viewBox="0 0 257 72" fill="none" xmlns="http://www.w3.org/2000/svg">
<path fill-rule="evenodd" clip-rule="evenodd" d="M236.413 0.0652324C232.622 0.51698 229.939 1.24752 227.872 2.39098C223.958 4.55586 221.11 6.99454 218.808 10.151C216.137 13.8143 214.465 18.1469 214.014 22.5763C213.867 24.0183 213.94 26.692 214.169 28.2342C214.739 32.0832 216.316 35.85 218.672 38.9954C219.571 40.1954 222.168 42.7778 223.322 43.62C225.789 45.4195 228.421 46.649 231.46 47.4217C233.797 48.0157 235.258 48.1903 237.911 48.1925C241.349 48.1955 242.569 47.957 245.122 46.7831C248.042 45.4404 249.307 44.5582 251.792 42.131C253.336 40.6233 254.077 39.6983 255.297 37.7557L256.052 36.5547L255.775 36.33C255.623 36.2065 255.351 36.0185 255.171 35.9125L254.845 35.7195L254.212 36.6918C251.525 40.8165 247.339 44.2909 244.03 45.1444C241.457 45.8082 238.007 45.7213 235.294 44.9247C233.589 44.4241 231.341 43.3564 229.985 42.4031C228.892 41.6352 226.687 39.3698 225.95 38.2587C224.19 35.6045 223.048 32.4781 222.469 28.7334C222.196 26.9683 222.199 22.4618 222.473 20.6348C222.987 17.2199 223.805 14.3173 224.936 11.8963C226.162 9.27236 228.425 6.63177 230.803 5.04932C231.871 4.33864 233.902 3.34439 235.082 2.95444C237.587 2.12638 240.254 2.02388 242.361 2.67454C243.493 3.02411 245.615 4.01026 246.52 4.60745C247.482 5.24213 249.665 7.37906 250.475 8.48025C251.961 10.4998 252.899 12.789 253.124 14.9492L253.197 15.6425H254.027H254.858L254.79 14.7827C254.753 14.3099 254.695 13.4986 254.662 12.98C254.463 9.84292 254.267 6.82158 254.217 6.10169C254.133 4.89589 253.831 0.193701 253.831 0.088974C253.831 0.0400495 253.56 0 253.229 0C252.631 0 252.627 0.00277352 252.494 0.416025C252.264 1.13724 251.594 2.32508 251.258 2.6072C250.585 3.17399 249.502 3.20805 248.616 2.69007C246.594 1.50801 243.88 0.494681 242.134 0.269584C240.91 0.111717 237.15 -0.0225211 236.413 0.0652324ZM67.5908 4.26708L63.735 8.09052L67.812 8.09451L71.8891 8.09861V12.037V15.9753H63.8984H55.9077L54.6121 17.3145C53.8995 18.051 53.2508 18.7474 53.1706 18.8619C53.0905 18.9764 51.9151 20.1303 50.5586 21.4262C49.2023 22.722 48.0745 23.827 48.0524 23.8817C48.0304 23.9364 48.1053 23.9713 48.2188 23.9592C48.3324 23.9473 53.7052 23.9433 60.1585 23.9503L71.8918 23.963L71.8627 27.9846L71.8336 32.0062L55.7882 32.0342L39.7429 32.0624L37.0949 34.7599C35.6384 36.2435 33.8796 38.0656 33.1862 38.8089L31.9257 40.1602H51.9073H71.8891V44.0986V48.037L47.9538 48.0401L24.0185 48.0432L21.9806 49.9769C20.8598 51.0405 19.1031 52.7989 18.0768 53.8844L16.2109 55.8582L44.0223 55.9137L71.8336 55.9692L71.8627 59.9908L71.8918 64.0123H39.8602H7.82848L3.91429 67.9209C1.76139 70.0705 0 71.8678 0 71.9147C0 71.9616 32.2003 72 71.5563 72C110.912 72 143.113 71.9625 143.113 71.9167C143.113 71.7721 71.7292 0.44376 71.5845 0.44376C71.5087 0.44376 69.7114 2.16433 67.5908 4.26708ZM120.688 1.35901C120.681 1.55726 120.662 1.83983 120.647 1.98671C120.632 2.13371 120.587 2.88255 120.547 3.65081C120.507 4.41918 120.403 6.34576 120.316 7.9322C120.229 9.51864 120.146 11.1162 120.131 11.4823L120.105 12.1479H120.69H121.276L121.598 10.8993C122.261 8.32149 122.978 6.91411 124.298 5.59159C125.318 4.57106 126.083 4.14582 127.592 3.76064C128.425 3.54797 128.915 3.51713 132.215 3.46887L135.907 3.41495L135.873 22.5919C135.841 40.7002 135.828 41.8059 135.639 42.4345C135.354 43.3824 134.817 44.3389 134.356 44.7209C133.42 45.4967 131.638 46.013 129.822 46.0344L129.344 46.0401L129.378 46.6225L129.411 47.2049L139.424 47.2332L149.436 47.2616V46.6508V46.0401L149.02 46.0374C147.788 46.0294 146.112 45.7159 145.29 45.3396C144.497 44.9768 143.951 44.469 143.616 43.784C142.982 42.4895 143.002 43.1523 143.002 22.4526V3.43315L146.136 3.45012C149.454 3.46798 150.652 3.58169 151.887 3.9965C154.414 4.84508 156.382 7.42743 157.113 10.8548C157.239 11.444 157.359 11.9885 157.379 12.0647C157.403 12.1524 157.622 12.2034 157.975 12.2034H158.533V11.346C158.533 10.4066 158.347 5.16425 158.26 3.66102C158.23 3.14237 158.204 2.33107 158.203 1.85824L158.2 0.998459H139.451H120.703L120.688 1.35901ZM165.714 1.08111C165.69 1.12715 165.658 1.39529 165.644 1.67697L165.618 2.18907L166.652 2.26839C169.315 2.47274 170.862 3.1609 171.509 4.42939C171.624 4.65471 171.809 5.1607 171.921 5.55365C172.113 6.23205 172.123 7.16616 172.123 24.074C172.123 40.6334 172.11 41.9324 171.93 42.631C171.824 43.0442 171.639 43.5751 171.518 43.8108C170.861 45.0987 169.33 45.785 166.654 45.9904L165.623 46.0695L165.656 46.6372L165.689 47.2049L183.656 47.2317C193.539 47.2464 201.66 47.2215 201.703 47.1762C201.794 47.0822 205.598 34.7103 205.549 34.6711C205.48 34.6166 204.423 34.2825 204.402 34.3085C204.39 34.3236 204.193 34.8102 203.965 35.3898C203.012 37.8184 201.656 39.8544 199.787 41.6664C198.261 43.1464 197.255 43.7624 195.475 44.3081C193.526 44.9055 193.043 44.9471 187.326 45.0088C183.48 45.0501 181.843 45.0302 181.425 44.9364C180.713 44.7772 180.094 44.2032 179.643 43.2848L179.334 42.6564L179.301 24.8505C179.265 6.2711 179.27 6.06398 179.736 4.81712C180.321 3.25032 181.827 2.47363 184.687 2.26373L185.724 2.18762L185.691 1.62083L185.658 1.05393L175.708 1.02564C170.236 1.01 165.738 1.03496 165.714 1.08111ZM223.211 64.4561V71.2234H224.043H224.875V64.4561V57.6888H224.043H223.211V64.4561ZM196.475 59.8085C196.475 61.6783 196.461 61.8117 196.28 61.7369C195.565 61.4408 194.651 61.2404 194.013 61.2397C192.362 61.2378 190.765 62.2459 190.019 63.7614C189.687 64.4344 189.657 64.5887 189.616 65.8334C189.566 67.3331 189.719 68.5815 190.041 69.3108C190.159 69.5775 190.573 70.113 190.961 70.501C191.808 71.3482 192.543 71.6311 193.581 71.5104C194.249 71.4328 195.359 70.9647 195.958 70.5084C196.162 70.3525 196.362 70.225 196.402 70.225C196.442 70.225 196.475 70.4246 196.475 70.6687V71.1125H197.307H198.139V64.4561V57.7997H197.307H196.475V59.8085ZM154.848 61.5066C154.438 61.6514 153.857 61.9498 153.557 62.1699C153.257 62.3901 152.981 62.5701 152.944 62.5701C152.906 62.5701 152.875 62.3205 152.875 62.0154V61.4607H152.099H151.322V66.2866V71.1125H152.099H152.875L152.882 67.5901L152.888 64.0678L153.419 63.6633C154.2 63.0694 154.614 62.8852 155.306 62.8229C156.056 62.7556 156.759 62.9297 157.172 63.2853L157.479 63.549L157.514 67.3308L157.548 71.1125H158.372H159.196L159.225 67.5409L159.254 63.9694L160.082 63.4086L160.909 62.8478L161.857 62.8477C162.605 62.8475 162.883 62.8941 163.181 63.0693C163.801 63.4348 163.855 63.8049 163.857 67.7011L163.858 71.1125H164.703H165.548L165.496 67.3683C165.45 64.1113 165.417 63.5462 165.239 63.0255C164.558 61.0318 161.937 60.6623 159.625 62.2341C158.852 62.7603 158.644 62.8227 158.644 62.5298C158.644 62.2761 157.912 61.678 157.33 61.4572C156.57 61.1683 155.761 61.1845 154.848 61.5066ZM176.45 61.388C175.731 61.625 175.372 61.8502 174.824 62.4064C173.849 63.3955 173.404 64.6162 173.401 66.3089C173.396 68.6663 174.301 70.325 176.039 71.1486C176.713 71.4677 176.882 71.5007 177.837 71.4997C178.745 71.4987 178.978 71.4576 179.526 71.2019C181.305 70.3714 182.132 68.9932 182.242 66.6749C182.334 64.7402 181.962 63.595 180.867 62.4472C180.026 61.5659 179.419 61.317 178.003 61.2748C177.296 61.2537 176.733 61.2947 176.45 61.388ZM235.248 61.3579C235.065 61.4188 234.616 61.5043 234.25 61.5479L233.584 61.6271L233.564 62.5424C233.553 63.0458 233.579 63.4576 233.622 63.4576C233.665 63.4576 234.089 63.308 234.564 63.1249C235.598 62.7269 236.933 62.5882 237.864 62.782C238.732 62.9627 239.276 63.5192 239.371 64.325L239.439 64.8998H238.499C237.41 64.8998 235.616 65.1479 234.84 65.4057C234.52 65.5119 234.062 65.8038 233.709 66.1265C233.22 66.5739 233.084 66.7824 232.934 67.3171C232.708 68.1231 232.703 68.7994 232.918 69.5252C233.195 70.4556 234.314 71.3199 235.486 71.5073C236.024 71.5934 237.593 71.2942 237.857 71.0551C237.957 70.9646 238.08 70.8906 238.129 70.8906C238.178 70.8906 238.462 70.7408 238.76 70.5578C239.057 70.3747 239.325 70.225 239.355 70.225C239.384 70.225 239.408 70.4246 239.408 70.6687V71.1125H240.246H241.084L241.05 67.4792L241.017 63.8459L240.705 63.1806C240.294 62.302 240.098 62.1115 239.152 61.6696C238.395 61.3164 238.283 61.296 236.968 61.2722C236.205 61.2584 235.431 61.297 235.248 61.3579ZM206.597 65.2049C206.637 68.356 206.674 69.0423 206.835 69.5377C207.179 70.5962 208.3 71.4131 209.564 71.5254C210.351 71.5953 211.33 71.2738 212.36 70.6071L213.116 70.1185V70.6155V71.1125H213.892H214.669V66.2866V61.4607H213.892H213.116V65.1171V68.7734L212.643 69.0504C211.874 69.5013 210.711 69.8922 210.145 69.8905C209.455 69.8883 208.745 69.6371 208.692 69.3764C208.67 69.264 208.557 69.0528 208.443 68.907C208.248 68.6599 208.234 68.3971 208.234 65.0513V61.4607H207.392H206.55L206.597 65.2049ZM249.615 66.2866V71.1125H250.391H251.168V67.6882V64.2639L251.832 63.8181C252.729 63.2156 253.79 62.9272 254.454 63.1051C254.723 63.1769 255.092 63.2357 255.274 63.2357H255.606V62.4182V61.6007L255.19 61.5319C254.041 61.3421 253.217 61.5446 252.024 62.3094C251.611 62.5749 251.249 62.792 251.22 62.792C251.191 62.792 251.168 62.4924 251.168 62.1263V61.4607H250.391H249.615V66.2866ZM196.059 63.0611L196.475 63.2387V66.0592V68.8797L195.441 69.3859C194.515 69.8391 194.326 69.8921 193.636 69.8921C192.395 69.8921 191.793 69.4281 191.424 68.184C191.199 67.4254 191.197 65.466 191.422 64.7219C191.707 63.7734 192.643 62.8721 193.535 62.6852C193.958 62.5965 195.513 62.8283 196.059 63.0611ZM178.933 62.8964C180.185 63.5351 180.865 65.212 180.607 67.0273C180.333 68.9595 179.262 70.1185 177.757 70.1116C177.033 70.1083 176.42 69.8034 175.861 69.1689C175.229 68.4507 175.022 67.7233 175.024 66.2311C175.026 65.2855 175.07 64.9662 175.262 64.5345C175.566 63.8512 176.062 63.2531 176.588 62.9344C177.142 62.599 178.313 62.58 178.933 62.8964ZM239.408 67.5603C239.408 68.9914 239.407 69.0008 239.14 69.0679C238.992 69.1049 238.607 69.3055 238.284 69.5137C237.729 69.8713 237.642 69.8921 236.718 69.8921C235.097 69.8921 234.416 69.4426 234.416 68.3727C234.416 68.043 234.492 67.6261 234.585 67.4461C234.846 66.9419 235.824 66.504 237.023 66.3548C237.572 66.2865 238.146 66.2125 238.299 66.1904C238.451 66.1684 238.764 66.1436 238.992 66.1353L239.408 66.1202V67.5603Z" fill="#1B243A"/>
</svg>