<?xml version="1.0" standalone="no"?>
<!DOCTYPE svg PUBLIC "-//W3C//DTD SVG 20010904//EN"
 "http://www.w3.org/TR/2001/REC-SVG-20010904/DTD/svg10.dtd">
<svg version="1.0" xmlns="http://www.w3.org/2000/svg"
 width="1699.000000pt" height="601.000000pt" viewBox="0 0 1699.000000 601.000000"
 preserveAspectRatio="xMidYMid meet">

<g transform="translate(0.000000,601.000000) scale(0.100000,-0.100000)"
fill="#ffffff" stroke="none">
<path d="M15778 5130 l-3 -39 25 23 c33 31 68 48 81 40 11 -7 8 -48 -17 -199
-11 -63 -22 -97 -36 -112 l-21 -23 79 0 c61 1 75 3 61 11 -16 9 -18 19 -12 58
13 92 47 246 56 257 15 18 48 5 72 -28 l22 -30 7 33 c3 19 4 37 2 41 -3 5 -74
8 -159 8 l-153 0 -4 -40z"/>
<path d="M16158 5158 c17 -17 15 -47 -9 -177 -17 -88 -27 -120 -45 -138 l-23
-23 52 1 c49 0 51 1 31 15 l-21 15 18 102 c10 56 21 117 24 136 4 18 8 31 11
28 2 -2 20 -62 40 -133 19 -71 37 -136 40 -144 5 -15 25 14 139 199 27 45 51
77 53 71 2 -5 -6 -62 -18 -127 -16 -83 -29 -125 -43 -140 l-20 -23 79 0 c70 1
77 2 61 15 -18 13 -18 17 2 137 12 68 24 135 27 149 3 15 15 31 27 37 18 9 10
11 -45 11 l-66 1 -68 -117 -68 -117 -29 117 -29 117 -66 0 c-51 0 -63 -3 -54
-12z"/>
<path d="M14371 5149 c-172 -16 -328 -65 -511 -160 -128 -67 -215 -133 -340
-259 -128 -129 -214 -249 -286 -395 -110 -226 -144 -376 -144 -634 0 -260 28
-401 116 -590 187 -401 547 -686 987 -782 134 -29 375 -37 491 -15 323 61 607
264 835 595 28 41 51 80 51 86 0 7 -12 17 -26 24 -32 14 -41 8 -98 -69 -53
-72 -225 -249 -301 -310 -89 -71 -171 -116 -276 -151 -93 -31 -94 -31 -264
-26 -192 5 -258 20 -404 88 -262 122 -464 361 -559 659 -142 445 -66 1024 184
1401 57 86 192 215 281 268 164 97 313 141 480 141 329 0 638 -232 769 -578
18 -48 39 -113 45 -144 l12 -58 48 0 49 0 -5 38 c-3 20 -19 223 -36 451 -16
227 -32 418 -35 422 -3 5 -16 9 -30 9 -20 0 -29 -10 -48 -53 -13 -30 -40 -70
-60 -90 -52 -52 -80 -49 -239 22 -151 67 -207 86 -292 100 -92 15 -289 20
-394 10z"/>
<path d="M4400 4905 l-225 -225 238 0 237 0 0 -235 0 -235 -473 0 -472 0 -230
-230 -230 -230 251 0 c138 0 454 -3 702 -7 l452 -6 0 -244 0 -243 -953 0 -952
0 -230 -230 -230 -230 1183 0 1182 0 0 -233 0 -234 -892 -6 c-491 -4 -1132 -7
-1423 -7 l-530 0 -225 -225 -225 -225 1025 0 c564 0 1305 -3 1648 -7 l622 -6
0 -244 0 -243 -1898 0 -1897 0 -230 -230 -230 -230 4233 0 c2327 0 4232 4
4232 8 0 11 -4216 4222 -4227 4222 -4 0 -109 -101 -233 -225z"/>
<path d="M7530 4828 c-20 -389 -20 -372 11 -376 33 -4 42 8 69 98 50 170 148
307 253 355 81 38 133 45 365 52 l212 6 0 -1162 0 -1162 -24 -47 c-53 -105
-116 -140 -288 -157 -67 -7 -68 -8 -68 -36 l0 -29 595 0 595 0 0 30 c0 28 -3
30 -35 30 -54 0 -184 29 -226 51 -47 23 -72 55 -101 127 l-23 57 -3 1149 -3
1149 223 -6 c246 -5 307 -17 400 -76 89 -57 183 -209 224 -363 18 -67 19 -68
51 -68 31 0 33 2 33 38 0 65 -20 495 -26 550 l-5 52 -1108 0 -1108 0 -13 -262z"/>
<path d="M10210 5060 c0 -16 4 -30 9 -30 5 0 44 -5 87 -11 104 -14 173 -42
218 -86 73 -73 69 -14 74 -1199 l4 -1061 -26 -63 c-15 -35 -36 -75 -49 -88
-43 -47 -121 -74 -249 -87 -67 -7 -68 -8 -68 -36 l0 -29 1070 0 1070 0 11 27
c18 48 177 555 198 631 l20 73 -26 10 c-37 14 -49 6 -63 -38 -39 -120 -142
-274 -250 -376 -85 -81 -181 -135 -295 -167 -100 -29 -340 -44 -593 -37 -240
7 -259 12 -304 85 l-23 37 0 1095 c0 903 2 1102 14 1135 37 108 118 154 314
180 44 6 47 8 47 36 l0 29 -595 0 -595 0 0 -30z"/>
</g>
</svg>
